<svg width="119" height="48" viewBox="0 0 119 48" fill="none" xmlns="http://www.w3.org/2000/svg">
<path d="M47.9993 0H0V48H47.9993V0Z" fill="#272761"/>
<path fill-rule="evenodd" clip-rule="evenodd" d="M15.6478 32.131L13.4796 33.7841C12.7965 32.9222 11.6528 32.3032 10.6032 32.3032C8.61456 32.3032 7.00345 33.9651 7.00345 36.0119C7.00345 38.0602 8.61456 39.7214 10.6032 39.7214C11.666 39.7214 12.7811 39.123 13.4796 38.2413L15.6478 39.8944C14.4835 41.4039 12.6574 42.3776 10.6032 42.3776C7.08809 42.3776 4.23828 39.5286 4.23828 36.0127C4.23828 32.4983 7.08809 29.6484 10.6032 29.6484C12.6574 29.6477 14.4835 30.6207 15.6478 32.131Z" fill="white"/>
<path fill-rule="evenodd" clip-rule="evenodd" d="M26.2967 37.3475L20.5772 30H18.1602V42.0307H20.8274V34.6766L26.5477 42.0307H28.964V30H26.2967V37.3475Z" fill="white"/>
<path fill-rule="evenodd" clip-rule="evenodd" d="M40.963 34.5757C40.963 33.5174 40.1048 32.6599 39.0472 32.6599H35.6329V36.493H39.0472C40.1048 36.493 40.963 35.6349 40.963 34.5757ZM39.1878 30C41.7115 30.0022 43.7635 32.066 43.7613 34.5897C43.7583 37.1083 41.7115 39.1471 39.1878 39.15H35.6321V42.0315H32.9648V30H39.1878Z" fill="white"/>
<path d="M53.8454 24H48V48.0004H53.8454V24Z" fill="#DD166B"/>
<path fill-rule="evenodd" clip-rule="evenodd" d="M23.9219 22.2779C30.1786 14.2407 39.9454 9.07031 50.9207 9.07031C61.896 9.07031 71.6621 14.2407 77.9196 22.2779H69.984C64.949 17.7022 58.2602 14.9135 50.9207 14.9135C43.5813 14.9135 36.8925 17.7022 31.8582 22.2779H23.9219Z" fill="#00ACA9"/>
<path d="M65.9276 36.0851C65.7598 35.8996 65.475 35.7215 65.0717 35.55C64.6683 35.3785 64.2532 35.2931 63.8256 35.2931C63.3192 35.2931 62.9402 35.3866 62.6892 35.5743C62.4375 35.7612 62.3124 36.0262 62.3124 36.3684C62.3124 36.4752 62.3264 36.5716 62.3551 36.657C62.3838 36.7423 62.4198 36.8181 62.4647 36.8844C62.5096 36.9506 62.5759 37.0139 62.6657 37.0743C62.7547 37.1346 62.843 37.1869 62.9306 37.2296C63.0182 37.2723 63.1374 37.3179 63.289 37.3657C63.4407 37.4136 63.582 37.4548 63.7145 37.4887C63.8462 37.5225 64.0192 37.5659 64.2333 37.6197C64.5756 37.7013 64.8678 37.783 65.1107 37.8633C65.3528 37.9435 65.5869 38.0451 65.8113 38.168C66.0358 38.2909 66.2161 38.4285 66.3516 38.5801C66.487 38.7318 66.5952 38.9165 66.6754 39.1336C66.7556 39.3515 66.7954 39.5988 66.7954 39.877C66.7954 40.1868 66.7461 40.4673 66.6482 40.7168C66.5503 40.9663 66.4156 41.1768 66.2441 41.3483C66.0726 41.5197 65.8658 41.6633 65.6237 41.7788C65.3815 41.8951 65.121 41.9783 64.8427 42.0305C64.5645 42.0821 64.265 42.1078 63.9441 42.1078C63.3523 42.1078 62.7797 42.018 62.227 41.8377C61.6743 41.6574 61.1767 41.3983 60.7344 41.0597L61.2959 40.0058C61.5204 40.2376 61.887 40.4614 62.3955 40.677C62.9041 40.8927 63.4267 41.0009 63.9654 41.0009C64.4505 41.0009 64.8236 40.9155 65.0864 40.744C65.3484 40.5725 65.4794 40.3267 65.4794 40.0058C65.4794 39.8777 65.4595 39.7614 65.4205 39.6584C65.3815 39.5546 65.3138 39.4611 65.2174 39.3772C65.121 39.2933 65.0223 39.2212 64.9208 39.1609C64.8192 39.1005 64.6749 39.0379 64.4873 38.9739C64.2996 38.9099 64.1288 38.8561 63.9735 38.8135C63.8182 38.7708 63.6085 38.7156 63.345 38.6479C62.935 38.5411 62.5965 38.4322 62.3286 38.3218C62.0607 38.2114 61.8251 38.076 61.6198 37.9155C61.4144 37.7551 61.2658 37.5652 61.173 37.3459C61.0803 37.1265 61.0339 36.8675 61.0339 36.5679C61.0339 36.1933 61.1061 35.8555 61.2503 35.5544C61.3946 35.2534 61.5933 35.0046 61.8465 34.8081C62.0997 34.6123 62.3977 34.4622 62.74 34.3584C63.0822 34.2554 63.4546 34.2031 63.858 34.2031C64.8133 34.2031 65.6892 34.4953 66.484 35.0804L65.9276 36.0851Z" fill="#272761"/>
<path d="M70.1878 42.1412C69.6063 42.1412 69.0875 42.0058 68.6311 41.7349C68.1748 41.4641 67.8252 41.1056 67.5823 40.6596C67.3402 40.2136 67.2188 39.7234 67.2188 39.1884C67.2188 38.7858 67.2909 38.4023 67.4351 38.038C67.5794 37.6744 67.7781 37.3572 68.0313 37.0856C68.2845 36.8147 68.5988 36.5998 68.9756 36.4409C69.3517 36.2819 69.7594 36.2031 70.1981 36.2031C70.6368 36.2031 71.0408 36.2833 71.4096 36.4438C71.7783 36.6042 72.0867 36.8192 72.3347 37.0885C72.5828 37.3579 72.7749 37.6685 72.9125 38.0218C73.0494 38.3751 73.1186 38.7438 73.1186 39.1287C73.1186 39.2288 73.1075 39.3746 73.0862 39.5674H68.4965C68.5318 40.0635 68.7165 40.469 69.0499 40.784C69.3833 41.0998 69.7764 41.2573 70.229 41.2573C70.5573 41.2573 70.862 41.1763 71.1439 41.0136C71.4258 40.8517 71.6201 40.6398 71.7268 40.38L72.7594 40.6744C72.5563 41.113 72.2243 41.467 71.7643 41.7364C71.3043 42.0058 70.7803 42.1412 70.1878 42.1412ZM68.4655 38.771H71.9262C71.8835 38.2757 71.6988 37.8716 71.3728 37.5596C71.0467 37.2475 70.6515 37.0915 70.1878 37.0915C69.7278 37.0915 69.334 37.249 69.0058 37.5647C68.6783 37.8805 68.4979 38.2831 68.4655 38.771Z" fill="#272761"/>
<path d="M73.4844 39.1714C73.4844 38.6297 73.5955 38.1329 73.8185 37.6818C74.0415 37.2306 74.3565 36.8714 74.765 36.6043C75.1735 36.3371 75.6328 36.2031 76.1421 36.2031C76.5844 36.2031 76.9811 36.3091 77.3322 36.5211C77.6833 36.7331 77.9769 37.023 78.2125 37.3903V36.3047H79.2767V41.8674C79.2767 42.4062 79.1428 42.875 78.8756 43.2739C78.6084 43.6736 78.2463 43.9739 77.79 44.1755C77.3337 44.3772 76.8148 44.478 76.2333 44.478C75.0778 44.478 74.1968 44.0681 73.5911 43.2474L74.2704 42.6159C74.4846 42.9192 74.765 43.1518 75.1132 43.3137C75.4605 43.4756 75.8344 43.5573 76.2341 43.5573C76.5726 43.5573 76.8781 43.4991 77.1489 43.3836C77.4198 43.2673 77.6421 43.0789 77.815 42.8169C77.988 42.5549 78.0748 42.2384 78.0748 41.8674V40.9901C77.8754 41.3287 77.5964 41.5966 77.238 41.7923C76.8796 41.9889 76.5005 42.0867 76.1016 42.0867C75.6026 42.0867 75.1507 41.9513 74.7459 41.6805C74.3411 41.4096 74.0298 41.0527 73.8126 40.6103C73.5933 40.1687 73.4844 39.6888 73.4844 39.1714ZM78.0734 39.9737V38.4708C77.9306 38.1109 77.7024 37.815 77.3889 37.5831C77.0753 37.3513 76.7471 37.2357 76.4048 37.2357C76.07 37.2357 75.7704 37.3329 75.5062 37.5272C75.242 37.7215 75.0432 37.9673 74.91 38.2654C74.7761 38.5635 74.7098 38.8778 74.7098 39.2097C74.7098 39.7337 74.8828 40.1827 75.2287 40.5551C75.5746 40.9275 75.9971 41.1138 76.4961 41.1138C76.8494 41.1138 77.1784 41.0011 77.4831 40.7767C77.7878 40.5514 77.9843 40.2843 78.0734 39.9737Z" fill="#272761"/>
<path d="M80.3906 39.8081V36.3047H81.594V39.5674C81.594 40.0775 81.6867 40.4624 81.8722 40.7229C82.0577 40.9835 82.33 41.1137 82.6906 41.1137C83.0402 41.1137 83.367 41.0063 83.6725 40.7899C83.9772 40.5743 84.212 40.2703 84.3761 39.878V36.3047H85.5846V40.6751C85.5846 40.8142 85.6096 40.9143 85.6597 40.9746C85.7097 41.035 85.7936 41.0674 85.9114 41.0711V42.0338C85.7009 42.0691 85.5228 42.0875 85.3763 42.0875C85.1555 42.0875 84.9701 42.0279 84.8199 41.9086C84.6698 41.7894 84.5881 41.6334 84.5741 41.4405L84.5527 40.8738C84.2996 41.2838 83.9691 41.598 83.5606 41.8152C83.1521 42.033 82.7024 42.1412 82.21 42.1412C81.6146 42.1412 81.1627 41.944 80.8543 41.5502C80.5452 41.1557 80.3906 40.575 80.3906 39.8081Z" fill="#272761"/>
<path d="M90.0638 37.3422C89.5935 37.3533 89.1769 37.4622 88.8148 37.6712C88.4527 37.8795 88.1973 38.1658 88.0471 38.5294V42.0328H86.8438V36.3037H87.9617V37.5873C88.1612 37.195 88.421 36.8793 88.7404 36.6408C89.0591 36.4016 89.3992 36.2721 89.7591 36.25C89.9121 36.25 90.0137 36.2537 90.0638 36.261V37.3422Z" fill="#272761"/>
<path d="M90.2305 40.3593C90.2305 39.814 90.4572 39.3746 90.9098 39.0404C91.3624 38.707 91.9512 38.5407 92.6747 38.5407C93.2562 38.5407 93.7537 38.6172 94.1674 38.7703V38.4067C94.1674 38.0041 94.0444 37.6891 93.7986 37.4624C93.5528 37.2357 93.2069 37.1231 92.7609 37.1231C92.4539 37.1231 92.1581 37.1769 91.8732 37.2836C91.5877 37.3903 91.2778 37.553 90.9422 37.7701L90.5411 36.9627C91.3006 36.4563 92.0852 36.2031 92.8948 36.2031C93.6683 36.2031 94.2748 36.407 94.7135 36.8155C95.1521 37.224 95.3715 37.7988 95.3715 38.5407V40.6751C95.3715 40.8105 95.3957 40.9099 95.4436 40.9717C95.4914 41.0335 95.5731 41.0674 95.6872 41.0703V42.033C95.4944 42.0684 95.3236 42.0867 95.1735 42.0867C94.9306 42.0867 94.7407 42.0279 94.6038 41.9101C94.4662 41.7923 94.3852 41.6444 94.3602 41.4663L94.3278 41.1344C94.082 41.4516 93.767 41.6989 93.3835 41.8755C93.0001 42.0522 92.607 42.1405 92.2044 42.1405C91.634 42.1405 91.1622 41.9705 90.7898 41.6297C90.4174 41.2889 90.2305 40.8657 90.2305 40.3593ZM93.8788 40.7067C94.0717 40.5139 94.1674 40.3358 94.1674 40.1717V39.5137C93.7464 39.3532 93.3077 39.273 92.8514 39.273C92.409 39.273 92.0513 39.3621 91.779 39.5402C91.506 39.7183 91.3698 39.9575 91.3698 40.257C91.3698 40.5279 91.4743 40.7627 91.6826 40.9607C91.8909 41.1586 92.1772 41.2573 92.5408 41.2573C92.7903 41.2573 93.0361 41.2058 93.279 41.102C93.5219 40.9997 93.7221 40.8672 93.8788 40.7067Z" fill="#272761"/>
<path d="M96.1953 39.1734C96.1953 38.6317 96.3042 38.1349 96.5214 37.6838C96.7392 37.2326 97.0461 36.8734 97.4443 36.6062C97.8418 36.3391 98.287 36.2051 98.7787 36.2051C99.2034 36.2051 99.5934 36.3148 99.9504 36.5341C100.307 36.7534 100.589 37.0397 100.795 37.393V34.0391H101.999V40.6771C101.999 40.8162 102.024 40.9163 102.074 40.9766C102.124 41.037 102.208 41.0694 102.325 41.0731V42.0358C102.115 42.0711 101.941 42.0895 101.801 42.0895C101.577 42.0895 101.387 42.0254 101.232 41.8966C101.076 41.7678 100.994 41.6096 100.983 41.4205L100.973 40.9928C100.755 41.3527 100.463 41.6346 100.095 41.8378C99.7281 42.0409 99.3373 42.1425 98.9237 42.1425C98.4063 42.1425 97.9389 42.0078 97.5194 41.7384C97.0999 41.469 96.7753 41.1091 96.5434 40.6579C96.3116 40.2068 96.1953 39.7122 96.1953 39.1734ZM100.796 39.9757V38.4728C100.671 38.1268 100.446 37.8346 100.122 37.5954C99.7973 37.3562 99.4691 37.237 99.1379 37.237C98.8096 37.237 98.5145 37.3305 98.2524 37.5182C97.9904 37.7051 97.7895 37.948 97.6504 38.2453C97.5113 38.5434 97.4421 38.8614 97.4421 39.1999C97.4421 39.7313 97.6143 40.1832 97.958 40.5556C98.3018 40.9281 98.7257 41.1143 99.2284 41.1143C99.553 41.1143 99.8746 41.0031 100.194 40.7801C100.513 40.5571 100.714 40.29 100.796 39.9757Z" fill="#272761"/>
<path d="M103.095 40.3056C102.956 39.9457 102.887 39.5674 102.887 39.1714C102.887 38.7755 102.958 38.3979 103.101 38.0373C103.244 37.6773 103.439 37.3616 103.689 37.0908C103.938 36.8199 104.25 36.6042 104.622 36.4438C104.995 36.2834 105.397 36.2031 105.829 36.2031C106.406 36.2031 106.922 36.3408 107.377 36.6153C107.832 36.8898 108.179 37.2519 108.418 37.7009C108.657 38.1499 108.776 38.6408 108.776 39.1722C108.776 39.7036 108.657 40.1937 108.418 40.6434C108.179 41.0924 107.832 41.4545 107.377 41.7291C106.922 42.0036 106.406 42.1412 105.829 42.1412C105.39 42.1412 104.984 42.061 104.612 41.9005C104.24 41.7401 103.928 41.5244 103.679 41.2536C103.428 40.9813 103.234 40.6655 103.095 40.3056ZM104.617 40.5625C104.947 40.9298 105.351 41.1138 105.829 41.1138C106.306 41.1138 106.711 40.9268 107.043 40.5522C107.375 40.1776 107.54 39.7176 107.54 39.1722C107.54 38.6268 107.375 38.1675 107.043 37.7951C106.711 37.4227 106.306 37.2365 105.829 37.2365C105.355 37.2365 104.951 37.4256 104.62 37.8032C104.288 38.1815 104.122 38.643 104.122 39.1884C104.122 39.7367 104.287 40.1952 104.617 40.5625Z" fill="#272761"/>
<path d="M112.79 37.3422C112.32 37.3533 111.903 37.4622 111.541 37.6712C111.179 37.8795 110.924 38.1658 110.774 38.5294V42.0328H109.57V36.3037H110.688V37.5873C110.888 37.195 111.148 36.8793 111.467 36.6408C111.786 36.4016 112.126 36.2721 112.486 36.25C112.639 36.25 112.74 36.2537 112.79 36.261V37.3422Z" fill="#272761"/>
<path d="M112.961 40.3593C112.961 39.814 113.188 39.3746 113.64 39.0404C114.093 38.707 114.682 38.5407 115.405 38.5407C115.987 38.5407 116.484 38.6172 116.898 38.7703V38.4067C116.898 38.0041 116.775 37.6891 116.529 37.4624C116.283 37.2357 115.937 37.1231 115.491 37.1231C115.184 37.1231 114.889 37.1769 114.604 37.2836C114.318 37.3903 114.008 37.553 113.673 37.7701L113.272 36.9627C114.031 36.4563 114.816 36.2031 115.625 36.2031C116.399 36.2031 117.005 36.407 117.444 36.8155C117.883 37.224 118.102 37.7988 118.102 38.5407V40.6751C118.102 40.8105 118.126 40.9099 118.174 40.9717C118.222 41.0335 118.304 41.0674 118.418 41.0703V42.033C118.225 42.0684 118.054 42.0867 117.904 42.0867C117.661 42.0867 117.471 42.0279 117.334 41.9101C117.197 41.7923 117.116 41.6444 117.091 41.4663L117.058 41.1344C116.812 41.4516 116.497 41.6989 116.114 41.8755C115.731 42.0522 115.338 42.1405 114.935 42.1405C114.365 42.1405 113.893 41.9705 113.52 41.6297C113.147 41.2889 112.961 40.8657 112.961 40.3593ZM116.609 40.7067C116.801 40.5139 116.897 40.3358 116.897 40.1717V39.5137C116.476 39.3532 116.037 39.273 115.581 39.273C115.139 39.273 114.781 39.3621 114.509 39.5402C114.236 39.7183 114.1 39.9575 114.1 40.257C114.1 40.5279 114.204 40.7627 114.412 40.9607C114.621 41.1586 114.907 41.2573 115.271 41.2573C115.52 41.2573 115.766 41.2058 116.009 41.102C116.252 40.9997 116.452 40.8672 116.609 40.7067Z" fill="#272761"/>
</svg>
